<?xml version="1.0" encoding="UTF-8"?>
<!DOCTYPE svg PUBLIC "-//W3C//DTD SVG 1.1//EN" "http://www.w3.org/Graphics/SVG/1.1/DTD/svg11.dtd">
<!-- Creator: CorelDRAW 2021.5 -->
<svg xmlns="http://www.w3.org/2000/svg" xml:space="preserve" width="5.40593in" height="5.40594in" version="1.1" style="shape-rendering:geometricPrecision; text-rendering:geometricPrecision; image-rendering:optimizeQuality; fill-rule:evenodd; clip-rule:evenodd"
viewBox="0 0 6287.83 6287.85"
 xmlns:xlink="http://www.w3.org/1999/xlink"
 xmlns:xodm="http://www.corel.com/coreldraw/odm/2003">
 <defs>
  <style type="text/css">
   <![CDATA[
    .fil1 {fill:#FEFEFE}
    .fil0 {fill:url(#id0)}
   ]]>
  </style>
  <linearGradient id="id0" gradientUnits="userSpaceOnUse" x1="-71.4" y1="2399.63" x2="7909.52" y2="3339.53">
   <stop offset="0" style="stop-opacity:1; stop-color:#10693D"/>
   <stop offset="1" style="stop-opacity:1; stop-color:#0A4D2A"/>
  </linearGradient>
 </defs>
 <g id="Layer_x0020_1">
  <metadata id="CorelCorpID_0Corel-Layer"/>
  <rect class="fil0" x="-0" width="6287.84" height="6287.85"/>
  <g id="_2268000530304">
   <path class="fil1" d="M1603.56 4996.32l1540.33 -3596.08 1540.39 3596.08 -3080.72 0zm-107.02 70.56l3294.76 0 -823.68 -1922.95 -823.73 -1922.95 -1647.35 3845.9zm0 0z"/>
   <path class="fil1" d="M4576.52 4925.28l-1432.63 -3344.51 -1432.57 3344.51 2865.19 0zm-1528.95 -2132.84l-44.21 135.16 114.99 -83.79 114.93 83.79 -44.21 -135.16 115.25 -83.32 -142.28 0.27 -43.68 -135.32 -43.74 135.32 -142.27 -0.27 115.24 83.32zm-374.5 768.82l-16.71 -51.75 -16.71 51.75 -54.38 -0.11 44.06 31.83 -16.92 51.69 43.95 -32.04 43.95 32.04 -16.92 -51.69 44.05 -31.83 -54.38 0.11zm85.78 -211.83l-54.38 0.11 -16.71 -51.75 -16.71 51.75 -54.38 -0.11 44.05 31.83 -16.92 51.65 43.95 -31.99 43.95 31.99 -16.91 -51.65 44.05 -31.83zm88.74 -148.39l-54.38 0.11 -16.71 -51.75 -16.7 51.75 -54.38 -0.11 44.05 31.88 -16.91 51.64 43.94 -32.04 43.95 32.04 -16.91 -51.64 44.05 -31.88zm99.59 -46.74l-16.92 -51.7 44.11 -31.83 -54.39 0.11 -16.76 -51.75 -16.7 51.75 -54.38 -0.11 44.05 31.83 -16.86 51.7 43.89 -32.04 43.95 32.04zm658.69 355.22l-16.71 51.75 -54.38 -0.11 44.06 31.83 -16.92 51.69 43.95 -32.04 43.95 32.04 -16.92 -51.69 44.06 -31.83 -54.38 0.11 -16.71 -51.75zm-60.18 -159.98l-54.38 -0.11 44.05 31.83 -16.92 51.65 43.95 -31.99 43.95 31.99 -16.92 -51.65 44.06 -31.83 -54.38 0.11 -16.71 -51.75 -16.7 51.75zm-85.11 -148.39l-54.38 -0.11 44.05 31.88 -16.92 51.64 43.95 -32.04 43.95 32.04 -16.92 -51.64 44.05 -31.88 -54.38 0.11 -16.71 -51.75 -16.71 51.75zm-151.55 -98.55l-16.92 51.7 43.95 -32.04 43.9 32.04 -16.86 -51.7 44.05 -31.83 -54.38 0.11 -16.71 -51.75 -16.76 51.75 -54.38 -0.11 44.1 31.83zm-184.64 184.6l74.24 0.42c18.34,0.16 60.18,-92.17 9.06,-140.22 -40.36,-37.94 -83.31,-107.66 -83.31,-107.66 0,0 -42.9,69.72 -83.31,107.66 -51.11,48.05 -9.22,140.38 9.06,140.22l74.25 -0.42zm21.76 94.11l0 65.13c0,1.37 -0.21,2.74 -0.58,4.06l30.09 0c-0.37,-1.31 -0.58,-2.68 -0.58,-4.06l0 -65.13c0,-8.75 7.17,-15.86 15.86,-15.86 8.7,0 15.86,7.11 15.86,15.86l0 65.13c0,1.37 -0.21,2.74 -0.53,4.06l18.6 0 0 -128.47 -201.87 0 0 128.47 31.3 0c-0.32,-1.31 -0.53,-2.68 -0.53,-4.06l0 -65.13c0,-8.75 7.11,-15.86 15.86,-15.86 8.69,0 15.81,7.11 15.81,15.86l0 65.13c0,1.37 -0.16,2.74 -0.53,4.06l30.04 0c-0.32,-1.31 -0.53,-2.68 -0.53,-4.06l0 -65.13c0,-8.75 7.11,-15.86 15.86,-15.86 8.69,0 15.86,7.11 15.86,15.86zm-139.43 169.63c78.78,17.76 158.71,18.44 239.92,0l0 -90.48c-80,18.39 -159.98,22.61 -239.92,0l0 90.48zm193.39 225.96c0,0 2.48,8.11 11.54,21.03 9.06,12.91 50.48,45.68 50.48,45.68l-37.57 1.16 -1.37 39.36 -27.14 23.03c0,0 11.33,30.36 7.69,41.21 -3.59,10.85 -7.22,9.96 -20.81,16.28 -13.6,6.32 -2.27,27.14 -2.27,27.14l73.83 1.79c0,0 2.27,3.64 14.49,13.12 12.22,9.49 45.26,21.29 47.53,21.29 2.27,0 8.59,10.38 8.59,10.38l25.82 14.02 4.54 -15.39 14.01 -0.42c0,0 0,12.23 4.06,17.18 4.06,4.95 18.13,-9.06 21.29,-15.81 3.16,-6.8 4.06,-30.77 4.06,-30.77 0,0 -31.2,14.02 -61.55,14.02 -30.35,0 -76.04,-40.26 -76.04,-40.26 0,0 15.39,-16.76 15.39,-33.47 0,-16.76 -17.65,-17.65 -35.78,-30.77 -18.07,-13.12 -7.22,-25.77 -7.22,-25.77 0,0 12.22,-3.64 24.87,-1.85 12.7,1.85 5.9,8.17 18.6,14.91 12.65,6.8 52.49,13.12 52.49,13.12l5.42 29.4c5.43,29.4 21.29,56.81 32.52,55.44 11.22,-1.37 32.99,-17.81 39.36,-26.4 6.32,-8.59 10.65,-39.78 10.65,-39.78 0,0 22.18,3.64 30.35,6.32 8.11,2.74 29.88,5.43 29.88,5.43 0,0 -0.48,62.92 -0.48,76.04 0,13.12 2.26,19.44 5.01,23.02 2.68,3.64 13.12,-2.69 14.91,-4.95 1.79,-2.27 2.26,-85.47 2.26,-85.47 0,0 15.39,0.42 23.08,0.42 7.7,0 45.27,-0.42 45.27,-0.42 0,0 0.48,1.8 1.37,8.11 0.89,6.32 3.42,49.53 3.42,49.53l10.86 6.8 3.64 -67.29c0,0 19.44,-9.06 15.81,-14.02 -3.64,-5.01 -23.08,-2.74 -23.08,-2.74 0,0 -8.17,-30.3 -12.65,-39.78 -4.53,-9.49 -11.81,-47.96 -11.81,-47.96l12.23 0.43c0,0 12.23,17.65 18.55,28.08 6.37,10.38 30.82,62.87 38.04,68.77 7.27,5.85 14.02,-5.01 13.12,-9.06 -0.9,-4.06 -42.11,-66.98 -49.33,-75.56 -7.27,-8.6 0,-21.71 0,-21.71 0,0 12.23,8.17 19.03,15.86 6.75,7.69 23.77,35.25 31.19,43.84 7.48,8.64 26.29,-0.9 26.29,-0.9 0,0 -37.15,-51.54 -48,-67.87 -10.85,-16.28 -76.04,-75.98 -175.63,-132.95 -99.59,-57.01 -224.59,-74.19 -224.59,-74.19l15.44 20.76 -15.39 15.39 73.78 0 1.79 14.02c0,0 -74.2,14.97 -76.94,15.86 -2.74,0.9 0.9,20.34 0.9,20.34 0,0 5.43,-1.79 46.64,-9.48 41.21,-7.69 45.27,25.77 45.27,25.77 0,0 0,0.47 -29.88,11.33 -29.88,10.86 -77.83,39.36 -77.83,39.36zm80.99 -17.65c18.55,-7.22 67.92,-1.79 67.92,-1.79l-67.45 67.39c0,0 -23.55,-9.06 -31.72,-15.86 -8.12,-6.8 -15.34,-17.55 -16.29,-16.71 0,0 28.99,-25.82 47.53,-33.04zm18.55 73.72l56.6 -58.33c0,0 37.57,6.8 50.69,17.18 13.12,10.38 20.39,29.4 19.92,32.09 -0.42,2.74 7.69,14.49 9.96,12.23 2.27,-2.26 6.32,-18.55 6.32,-18.55 0,0 12.23,-5.85 22.66,-2.69 10.43,3.16 10.85,31.67 10.85,31.67l1.85 77.78 -53.44 -8.6c0,0 -2.26,-11.75 0.9,-27.13 3.16,-15.39 3.16,-29.82 3.16,-29.82 0,0 -16.28,-4.53 -17.65,-1.85l-19.44 41.15c0,0 -47.11,-22.61 -61.6,-34.36 -14.49,-11.75 -30.77,-30.78 -30.77,-30.78zm-8.17 14.49l0.95 1.11c3.9,4.74 19.39,23.24 28.03,28.72 9.96,6.32 67.45,39.84 67.45,39.84l2.27 44.79c0,0 -3.59,14.44 -13.12,-3.64 -9.48,-18.07 -20.39,-34.36 -23.98,-39.78 -3.63,-5.43 -52.54,-33.94 -58.86,-39.36 -6.32,-5.43 -13.12,-17.18 -13.12,-17.18 0,0 -1.84,-9.07 4.27,-11.81l6.11 -2.69zm208.04 80.52l0.42 -94.06c0,0 5.01,-2.74 14.97,1.79 9.96,4.53 16.28,16.28 23.08,26.67 6.8,10.43 20.39,66.98 20.39,66.98l-58.86 -1.37zm-518.1 -79.15c14.49,7.22 23.98,15.39 40.74,19.44 16.76,4.06 20.39,-7.69 20.39,-7.69 0,0 -0.47,-7.22 -5.48,-8.59 -4.95,-1.37 -8.59,-23.08 -26.24,-36.68 -17.66,-13.55 -38.95,6.8 -38.95,6.8l-4.95 10.43c0,0 0,9.01 14.49,16.28zm-313.27 165.99c0,0 20.82,-14.02 23.08,-24.4 2.26,-10.43 -5.91,-18.12 -5.91,-18.12 0,0 -15.81,10.43 -18.07,26.24 -2.27,15.86 0.89,16.29 0.89,16.29zm434.05 20.18l-91.43 -76.24 66.08 -54.28 -3.16 -30.77 -76.04 72.82 -69.72 -77.83 4.95 -18.07c1.85,-6.32 9.96,-4.53 9.96,-4.53 0,0 0.47,-14.91 5.43,-26.66 5.01,-11.81 9.96,-4.11 19.5,-11.33 9.49,-7.22 -5.01,-31.67 -5.01,-31.67 0,0 -28.98,15.86 -40.73,23.08 -11.81,7.22 0.47,16.76 0.47,26.24 0,9.48 -10.01,20.81 -10.01,20.81l-48.43 -63.81 76.78 -50.22 -14.75 -8.38 -69.45 43.69 -23.34 -37.99c0,0 11.54,-14.97 25.13,-25.82 13.6,-10.86 54.8,-23.72 54.8,-23.72 0,0 -2.27,7.7 14.91,19.66 17.24,12.01 37.15,12.22 37.15,12.22l13.12 53.38c0,0 32.56,-9.06 43.47,0.42 10.85,9.54 -7.75,6.37 -20.87,11.8 -13.12,5.43 -6.32,7.69 -0.42,17.6 5.85,9.96 17.65,-8.59 28.98,-8.11 11.28,0.42 14.02,11.75 21.23,13.12 7.28,1.37 9.96,-7.27 9.96,-9.48 0,-2.27 -32.15,-41.21 -28.93,-51.17 3.16,-9.9 24.87,-6.75 24.87,-6.75l-19.92 -108.6c0.42,2.32 -49.01,11.33 -49.01,11.33 0,0 -108.66,18.13 -210.1,90.48 -101.39,72.4 -167.94,183.22 -167.94,183.22 0,0 -0.42,14.49 3.64,16.76 4.06,2.27 21.29,-7.27 21.29,-7.27 0,0 32.14,23.98 50.69,35.78 18.55,11.75 89.21,51.11 89.21,51.11l4.06 32.09 14.49 -14.43c0,0 71.77,28.46 83.99,28.46 12.23,0 16.28,-9.27 16.28,-9.27l-105.91 -56.54c-105.97,-56.54 -142.8,-91.37 -142.8,-91.37 0,0 9.96,-16.28 47.95,-64.23 38.04,-47.95 111.88,-88.22 111.88,-88.22l27.61 43.42c0,0 -11.33,10.39 -48.48,42.95 -37.1,32.57 -76.46,90.48 -76.46,90.48l23.98 11.33c0,0 18.13,-34.83 43,-65.13 24.93,-30.3 68.61,-61.29 68.61,-61.29l50.28 62.87 -44.58 41.41 8.17 22.61 51.11 -45.42 72.93 77.77 -63.39 84.16 26.24 4.95 55.7 -76.19 82.62 69.19 -17.92 25.56 11.81 5.22c0,0 11.75,-11.96 19.92,-19.65 8.11,-7.69 6.53,-21.5 6.53,-21.5zm-46.85 -449.22l69.51 500.29c0,0 0.89,0.26 8.16,5.9 7.22,5.64 16.49,-5.01 16.49,-5.01l52.54 -501.18 -146.71 0zm-2.26 667.97c-25.56,-36.89 -71.67,-79.83 -152.98,-100.02 -45.79,-11.38 -92.9,-18.18 -136.69,-22.13 -106.82,-9.7 -193.81,-2.32 -193.81,-2.32 0,0 23.55,26.24 70.61,28.98 39.89,2.26 119.3,2 172.42,7.85 9.59,1.1 18.39,2.37 25.87,3.9 48.9,9.96 56.17,13.54 77.88,26.24 21.71,12.65 30.78,22.61 30.78,22.61 0,0 -14.97,-0.21 -36.47,-2.43 -21.76,-2.26 -50.27,-6.59 -76.72,-14.75 -52.48,-16.28 -142.12,-2.74 -142.12,-2.74 0,0 10.85,26.24 64.28,27.14 53.39,0.9 195.08,4.9 195.08,4.9 0,0 19.49,16.81 25.82,24.98 6.32,8.11 8.16,17.86 8.16,17.86 0,0 -67.45,-1.37 -100.96,-6.8 -33.52,-5.43 -60.65,-9.96 -60.65,-9.96 0,0 40.73,38.89 111.35,49.74 70.61,10.9 148.08,10.64 148.08,10.64 0,0 -5.96,-29.19 -29.93,-63.71zm335.77 -113.93c-99.49,24.66 -146.28,83.47 -167.2,123.46 -12.23,23.35 -15.7,40.26 -15.7,40.26 0,0 77.46,0.21 148.07,-10.64 70.61,-10.86 111.35,-49.74 111.35,-49.74 0,0 -27.14,4.53 -60.65,9.96 -33.51,5.43 -100.96,6.8 -100.96,6.8 0,0 1.79,-9.48 7.9,-17.55 0.11,-0.11 0.16,-0.21 0.26,-0.32 6.32,-8.16 25.82,-24.98 25.82,-24.98 0,0 17.34,-0.48 42.21,-1.16 46.16,-1.27 118.2,-3.16 152.87,-3.75 53.44,-0.89 64.28,-27.14 64.28,-27.14 0,0 -89.63,-13.6 -142.11,2.74 -12.23,3.74 -24.82,6.69 -37.05,9.01 -40.37,7.64 -76.14,8.17 -76.14,8.17 0,0 9.06,-9.96 30.77,-22.61 21.71,-12.7 28.98,-16.28 77.88,-26.24 10.75,-2.22 24.13,-3.9 38.94,-5.17 52.38,-4.59 122.62,-4.48 159.35,-6.59 47.06,-2.74 70.61,-28.98 70.61,-28.98 0,0 -84.05,-7.12 -188.33,1.79 -45.32,3.9 -94.43,10.8 -142.17,22.66zm-134.69 -59.39c-112.29,22.66 -124.94,74.2 -124.94,74.2 0,0 -29.93,-43.42 -71.56,-66.98 -41.69,-23.51 -139.43,-25.3 -139.43,-25.3l-231.02 -0.42 -223.27 -0.42 -54.59 -0.11c0,0 0,10.91 9.96,19.02 6.53,5.32 11.48,14.86 65.13,17.86 28.46,1.58 70.66,1.26 134.06,-2.48 36.3,-2.16 70.5,-2.11 102.07,-0.63 127.52,6 212.31,35.2 220.26,35.88 9.96,0.95 71.56,18.13 131.32,85.05 11.91,13.38 20.92,27.56 27.77,41.84 27.35,57.18 20.55,116.72 32.88,139.11 15.39,28.09 43.47,34.41 57.96,32.57 14.49,-1.79 25.35,-16.28 19.92,-21.71 -5.43,-5.43 -23.56,-33.46 -32.62,-83.21 -4.01,-22.03 -1.63,-46.16 3.85,-68.4 6.9,-28.09 18.65,-53.22 28.77,-67.35 18.12,-25.29 75.14,-58.81 125.83,-77.77 30.77,-11.54 119.67,-20.03 211.78,-25.98 59.86,-3.85 121.09,-6.64 168.52,-8.43 25.72,-0.95 45.58,-2.47 60.97,-4.32 56.7,-6.75 52.22,-17.39 52.22,-17.39 0,0 -16.23,0.11 -43.26,0.42 -47.38,0.53 -128,1.69 -213.42,4.06 -126.99,3.59 -264.58,9.91 -319.18,20.87zm497.7 674.08c0,0 -58.86,13.54 -76.51,17.18 -17.65,3.58 -28.03,1.79 -28.03,1.79 0,0 2.69,47.95 32.15,61.07 29.4,13.12 78.73,9.96 78.73,9.96 0,0 -16.28,-12.22 -20.34,-31.19 -4.06,-19.02 -4.53,-25.82 1.37,-35.78 5.85,-9.9 12.64,-23.02 12.64,-23.02zm3.64 -213.52l92.16 170.94c0,0 -48,25.77 -63.87,37.57 -15.81,11.75 -23.08,23.97 -27.61,40.68 -4.53,16.76 -0.42,33.51 20.82,45.69 21.29,12.23 67.03,-6.8 67.03,-6.8 0,0 57.96,-3.58 181.06,-184.54 123.15,-180.95 225.9,-251.04 225.9,-251.04l-176.32 2c0,0 -5.01,-19.65 -8.85,-32.77 -3.85,-13.12 -8.16,-43.21 -2.69,-73.93 5.43,-30.77 25.08,-69.93 25.08,-69.93 0,0 -24.66,12.22 -45.26,26.24 -20.6,14.01 -36.68,26.24 -71.98,61.55 -35.31,35.25 -136.69,199.93 -162.99,219.84 -26.24,19.92 -52.48,14.49 -52.48,14.49zm-1281.6 164.62c422.56,142.75 868.52,135.32 1334.56,-1.79l-126.73 -233.44c-379.25,85.16 -738.68,83.73 -1079.25,0l-128.58 235.23zm166.52 -48.69c16.12,1.31 32.35,2.68 48.58,4.05 -1.31,8.86 -1,15.91 1.11,20.97 3.43,8.17 10.17,12.86 20.24,14.23 7.38,0.95 13.59,-0.11 18.6,-3.43 4.95,-3.27 8.06,-7.48 9.22,-12.54 1.1,-4.74 0.05,-9.33 -2.85,-13.6 -2.95,-4.32 -10.75,-8.85 -23.45,-14.12 -20.56,-8.54 -34.04,-18.55 -40.42,-29.09 -6.42,-10.59 -7.53,-22.92 -3.21,-37.15 2.84,-9.27 7.74,-17.76 14.7,-25.45 6.9,-7.64 15.49,-13.28 25.66,-16.81 10.17,-3.53 22.87,-4.16 38.42,-2.22 19.18,2.38 32.83,8.7 41.26,18.71 8.49,10.01 12.02,24.56 10.49,44.11 -15.81,-0.58 -31.35,-1.32 -46.85,-2.22 0.74,-8.54 -0.42,-14.97 -3.37,-19.23 -3.01,-4.32 -7.8,-6.85 -14.49,-7.69 -5.53,-0.69 -10.01,0.21 -13.44,2.53 -3.58,2.42 -5.95,5.63 -6.95,9.64 -0.74,2.9 -0.16,5.64 1.42,8.38 1.58,2.74 6.38,5.7 14.49,8.91 20.02,8.01 34.2,15.6 42.47,22.19 8.27,6.64 13.97,14.18 16.86,22.82 2.85,8.64 3.48,18.07 1.63,28.24 -2.16,11.91 -7.22,22.6 -15.29,31.99 -8.16,9.43 -18.39,16.23 -30.82,20.08 -12.17,3.74 -26.82,4.53 -43.74,2.16 -29.51,-4.11 -48.16,-13.44 -55.65,-27.24 -7.38,-13.6 -8.85,-29.72 -4.63,-48.22zm280.6 61.96c-20.81,-1.21 -41.68,-2.47 -62.18,-4.11 -4.42,10.01 -8.64,20.03 -12.96,29.98 -19.07,-1.47 -37.99,-3.1 -56.75,-5.01 16.28,-29.88 32.46,-59.7 47.64,-90 15.02,-30.09 29.24,-60.44 43.1,-90.69 17.44,1.53 35.09,2.74 52.69,3.95 7.8,31.73 15.81,63.61 24.93,95.07 9.17,31.56 19.29,62.97 30.09,94.42 -20.03,-0.63 -39.84,-1.31 -59.54,-2.32 -2.48,-10.44 -4.85,-20.87 -7.01,-31.3zm-8.22 -41.1c-2.21,-11.33 -4.43,-22.71 -6.43,-34.09 -2.01,-11.33 -3.9,-22.71 -5.64,-34.09 -4.22,11.01 -8.33,22.03 -12.54,32.93 -4.27,11.02 -8.75,21.87 -13.12,32.78 12.48,0.95 25.14,1.69 37.73,2.48zm94.8 -110.87c14.97,0.47 30.2,0.79 45.48,1.21 10.69,17.33 21.61,34.51 32.98,51.54 11.38,17.12 23.4,34.09 35.73,51.11 -1.58,-17.02 -3,-34.04 -4.43,-51.11 -1.42,-17.02 -3.1,-34.04 -4.53,-51.12 15.33,-0.21 30.82,-0.47 46.21,-0.74 4.01,30.78 8.01,61.55 12.02,92.27 4,30.72 8.01,61.5 12.02,92.27 -18.07,0.53 -36.15,1.1 -54.12,1.31 -12.91,-16.86 -25.61,-33.67 -37.78,-50.59 -12.07,-16.86 -23.5,-34.04 -34.83,-51.21 0.53,17.02 1.16,34.04 1.79,51 0.58,17.02 1,33.99 1.63,51.01 -17.97,-0.21 -35.83,-0.47 -53.7,-0.68 0.21,-31.04 0.53,-62.08 0.79,-93.17 0.32,-31.04 0.43,-62.08 0.74,-93.11zm172.9 0.27c49.48,-2.11 98.59,-5.17 147.12,-9.28 4.22,15.02 8.64,29.93 12.86,44.95 -16.97,1.47 -33.99,2.95 -51.01,4.37 5.64,22.87 11.22,45.79 16.71,68.71 5.48,22.92 11.12,45.84 16.65,68.77 -18.92,1.42 -37.57,2.79 -56.49,3.95 -4.53,-23.02 -9.01,-46.11 -13.54,-69.08 -4.53,-23.02 -8.96,-46.11 -13.54,-69.14 -17.29,0.85 -34.62,1.63 -51.85,2.32 -2.16,-15.18 -4.53,-30.35 -6.91,-45.58zm225.17 169.83c-9.43,-30.25 -18.81,-60.44 -28.14,-90.64 -9.32,-30.19 -18.76,-60.44 -28.03,-90.63 26.08,-2.79 52.17,-5.85 77.83,-9.17 14.28,-1.84 25.66,-1.95 34.3,-0.16 8.65,1.8 16.97,6.22 25.09,13.28 8.01,7.12 14.49,16.34 19.49,27.51 4.32,9.8 6.43,18.5 5.96,26.19 -0.53,7.75 -3.37,14.39 -8.01,19.92 -3,3.53 -7.8,6.8 -14.49,9.8 6.8,1.27 12.23,2.79 15.81,4.48 2.37,1.16 6.32,3.85 11.81,7.96 5.64,4.16 9.49,7.38 11.81,9.75 7.64,7.8 15.6,15.65 23.4,23.34 7.9,7.75 16.02,15.44 24.03,23.08 -19.6,3.53 -39.42,7.16 -59.33,10.33 -8.43,-8.33 -16.76,-16.65 -25.03,-25.03 -8.27,-8.33 -16.44,-16.71 -24.45,-25.19 -6.17,-6.53 -10.75,-10.8 -14.38,-12.49 -4.69,-2.21 -9.44,-3 -14.07,-2.42 -1.53,0.16 -3.06,0.37 -4.37,0.52 4.27,12.18 8.59,24.29 12.91,36.46 4.32,12.12 8.54,24.24 12.96,36.36 -18.29,2.27 -36.78,4.59 -55.07,6.75zm17.07 -113.45c6.96,-0.84 14.07,-1.85 20.92,-2.79 2.26,-0.32 6.21,-1.79 12.12,-4.27 2.84,-1.16 4.85,-3.37 5.64,-6.69 0.84,-3.32 0.53,-6.91 -1,-10.75 -2.37,-5.8 -5.69,-9.96 -10.07,-12.65 -4.37,-2.63 -10.8,-3.42 -19.5,-2.26 -7.01,0.95 -14.07,1.84 -21.08,2.74 4.32,12.22 8.64,24.45 12.96,36.68zm89.63 -89.74c14.75,-2.53 29.56,-5.06 44.32,-7.59 14.91,28.51 29.88,57.02 44.79,85.53 14.86,28.45 29.77,57.01 44.63,85.47 -16.91,3.63 -33.98,7.32 -50.9,10.96 -13.75,-29.09 -27.61,-58.18 -41.36,-87.16 -13.76,-29.09 -27.61,-58.12 -41.47,-87.21zm-899.98 237.87c-17.65,-3.64 -76.46,-17.18 -76.46,-17.18 0,0 6.75,13.12 12.64,23.02 5.9,9.96 5.43,16.76 1.37,35.78 -4.11,18.97 -20.39,31.19 -20.39,31.19 0,0 49.37,3.16 78.77,-9.96 29.46,-13.12 32.15,-61.07 32.15,-61.07 0,0 -10.38,1.79 -28.09,-1.79zm-132.58 -245.19c-26.29,-19.92 -127.68,-184.59 -162.99,-219.84 -35.31,-35.31 -51.43,-47.53 -71.98,-61.55 -20.6,-14.02 -45.32,-26.24 -45.32,-26.24 0,0 19.71,39.15 25.14,69.93 5.43,30.72 1.16,60.81 -2.69,73.93 -3.85,13.12 -8.85,32.77 -8.85,32.77l-176.32 -2c0,0 102.76,70.09 225.9,251.04 123.1,180.95 181.06,184.54 181.06,184.54 0,0 45.74,19.03 66.98,6.8 21.29,-12.18 25.4,-28.93 20.87,-45.69 -4.53,-16.71 -11.81,-28.93 -27.61,-40.68 -15.86,-11.81 -63.87,-37.57 -63.87,-37.57l92.16 -170.94c0,0 -26.24,5.43 -52.48,-14.49zm484.69 -265.85c-5.06,-5.64 -12.17,-11.96 -18.13,-17.13 -50.17,-1.31 -100.33,-2.84 -150.55,-3.95l29.82 5.01c20.23,3.37 40.42,6.69 60.6,9.96 23.98,3.85 52.17,5.37 78.26,6.11zm121.08 -3.65c-5.4,-0.41 -10.78,-0.88 -16.14,-1.43 11.02,17.66 22.3,40.69 26,59.46l2.95 15.13 -15.39 0c-49.06,0.05 -101.65,-3.37 -150.03,-10.8 -38.47,-5.9 -89.37,-25.45 -118.2,-53.17l-27.93 -26.82c-10.33,-0.21 -20.66,-0.42 -30.93,-0.63 -20.24,-0.32 -42.37,-4.16 -59.23,-16.07 -6.27,-4.48 -13.54,-11.54 -16.54,-18.81l-6.27 -14.97 16.07 -2.47c42.11,-6.32 106.97,-9.49 147.81,3.16 9.86,3.06 20.01,5.59 30.29,7.69 -8.75,-4.33 -17.4,-8.87 -25.93,-13.62l-6.15 -1.24c-8.11,-1.63 -16.49,-2.74 -24.76,-3.69 -56.97,-6.33 -114.61,-4.54 -171.68,-7.8 -26.5,-1.53 -60.97,-12.7 -79.36,-33.14l-17.02 -18.97 25.4 -2.11c19.12,-1.63 38.83,-2.21 57.96,-2.58 39.77,-0.69 79.73,0.37 119.42,3.32 -3.55,-2.96 -7.06,-5.98 -10.55,-9.02 -5.13,-0.32 -10.25,-0.6 -15.38,-0.84 -33.57,-1.58 -67.19,-1.42 -100.75,0.58 -41.57,2.47 -85.17,4.66 -127.03,2.89 132.97,214.41 366.13,356.6 631.53,356.6 275.74,0 516.63,-153.45 646.58,-381.89 -17.61,1.81 -35.39,2.76 -53.02,3.43 -56.07,2.11 -112.19,4.79 -168.15,8.38l-15.06 0.99c-2.79,2.55 -5.59,5.07 -8.42,7.56l4.41 -0.38c44.52,-3.79 89.47,-5.17 134.16,-4.32 18.5,0.37 37.62,0.95 56.12,2.53l22.92 2.01 -15.39 17.12c-18.12,20.19 -52.33,31.2 -78.52,32.73 -52.96,3.05 -105.97,1.95 -158.98,6.59 -12.49,1.11 -25.34,2.48 -37.67,4.95 -4.24,0.87 -8.69,1.75 -13.24,2.7 -9.22,5.68 -18.61,11.11 -28.11,16.29l4.41 -0.81c12.07,-2.27 24.08,-5.11 35.78,-8.75 40.63,-12.6 105.34,-9.43 147.28,-3.06l14.54 2.16 -5.64 13.6c-2.95,7.06 -10.07,14.01 -16.18,18.29 -16.65,11.8 -38.57,15.6 -58.54,15.91 -50.9,0.84 -101.86,2.37 -152.76,3.74 -12.7,0.32 -25.45,0.79 -38.15,1.05 -6.69,5.8 -14.91,13.12 -20.24,19.55 26.83,-0.74 56.17,-2.22 80.99,-6.22 20.24,-3.27 40.42,-6.59 60.6,-9.96l36.73 -6.22 -26.88 25.82c-28.62,27.51 -79.3,46.96 -117.56,52.85 -48.32,7.43 -100.8,10.8 -149.81,10.75l-14.02 0 2.79 -13.75c2.74,-13.87 10.28,-30.93 16.71,-43.32 0.98,-1.88 2,-3.73 3.02,-5.57 -6.44,0.95 -12.91,1.79 -19.41,2.52 -0.39,1.46 -0.76,2.9 -1.11,4.31 -4.96,20.24 -7.43,42.74 -3.69,63.29 3.43,18.81 8.8,37.88 16.76,55.33 2.42,5.27 8.27,17.23 12.44,21.34 1.32,1.37 2.42,2.9 3.27,4.58 8.85,18.02 -13.97,36.09 -30.41,38.15 -28.45,3.58 -56.91,-14.39 -70.34,-38.89 -8.22,-15.02 -9.96,-43.64 -12.23,-60.86 -3.58,-27.4 -8.96,-53.8 -20.97,-78.89 -1.02,-2.12 -2.08,-4.22 -3.17,-6.28zm-409.55 -207.46c-108.49,-122.24 -175.2,-288.27 -175.2,-471.18 0,-237.71 112.56,-446.91 283.13,-568.59 -242.77,127.53 -408.96,387.31 -408.96,687.04 0,126.96 29.82,246.73 82.63,352.33l218.39 0.4zm1116.85 -6.48c50.94,-104.11 79.66,-221.71 79.66,-346.24 0,-281.81 -146.91,-528.32 -366.28,-662.75 152.6,124.09 251.31,321.7 251.31,544.29 0,181.61 -65.76,346.57 -172.87,468.56 67.26,-1.82 134.6,-3.05 201.9,-3.79l6.29 -0.07z"/>
  </g>
 </g>
</svg>
