<?xml version="1.0" encoding="UTF-8"?>
<!DOCTYPE svg PUBLIC "-//W3C//DTD SVG 1.1//EN" "http://www.w3.org/Graphics/SVG/1.1/DTD/svg11.dtd">
<!-- Creator: CorelDRAW 2021.5 -->
<svg xmlns="http://www.w3.org/2000/svg" xml:space="preserve" width="2.83265in" height="3.30649in" version="1.1" style="shape-rendering:geometricPrecision; text-rendering:geometricPrecision; image-rendering:optimizeQuality; fill-rule:evenodd; clip-rule:evenodd"
viewBox="0 0 707.62 825.99"
 xmlns:xlink="http://www.w3.org/1999/xlink"
 xmlns:xodm="http://www.corel.com/coreldraw/odm/2003">
 <defs>
  <style type="text/css">
   <![CDATA[
    .fil0 {fill:url(#id0)}
    .fil1 {fill:url(#id1)}
   ]]>
  </style>
  <linearGradient id="id0" gradientUnits="userSpaceOnUse" x1="19.86" y1="233.38" x2="862.22" y2="520.53">
   <stop offset="0" style="stop-opacity:1; stop-color:#10693D"/>
   <stop offset="1" style="stop-opacity:1; stop-color:#0A4D2A"/>
  </linearGradient>
  <linearGradient id="id1" gradientUnits="userSpaceOnUse" xlink:href="#id0" x1="63.4" y1="280.23" x2="795.94" y2="529.94">
  </linearGradient>
 </defs>
 <g id="Layer_x0020_1">
  <metadata id="CorelCorpID_0Corel-Layer"/>
  <g id="_2268239063760">
   <path class="fil0" d="M22.99 810.83l330.82 -772.33 330.83 772.33 -661.65 0zm-22.99 15.15l707.62 0 -176.9 -412.99 -176.91 -412.99 -353.8 825.99zm0 0z"/>
   <path class="fil1" d="M661.49 795.58l-307.69 -718.3 -307.67 718.3 615.36 0zm-328.37 -458.07l-9.5 29.03 24.7 -18 24.68 18 -9.5 -29.03 24.75 -17.89 -30.56 0.06 -9.38 -29.06 -9.39 29.06 -30.56 -0.06 24.75 17.89zm-80.43 165.12l-3.59 -11.11 -3.59 11.11 -11.68 -0.02 9.46 6.84 -3.63 11.1 9.44 -6.88 9.44 6.88 -3.63 -11.1 9.46 -6.84 -11.68 0.02zm18.42 -45.5l-11.68 0.02 -3.59 -11.11 -3.59 11.11 -11.68 -0.02 9.46 6.84 -3.63 11.09 9.44 -6.87 9.44 6.87 -3.63 -11.09 9.46 -6.84zm19.06 -31.87l-11.68 0.02 -3.59 -11.11 -3.59 11.11 -11.68 -0.02 9.46 6.85 -3.63 11.09 9.44 -6.88 9.44 6.88 -3.63 -11.09 9.46 -6.85zm21.39 -10.04l-3.63 -11.1 9.47 -6.84 -11.68 0.02 -3.6 -11.11 -3.59 11.11 -11.68 -0.02 9.46 6.84 -3.62 11.1 9.43 -6.88 9.44 6.88zm141.47 76.29l-3.59 11.11 -11.68 -0.02 9.46 6.84 -3.63 11.1 9.44 -6.88 9.44 6.88 -3.63 -11.1 9.46 -6.84 -11.68 0.02 -3.59 -11.11zm-12.92 -34.36l-11.68 -0.02 9.46 6.84 -3.63 11.09 9.44 -6.87 9.44 6.87 -3.63 -11.09 9.46 -6.84 -11.68 0.02 -3.59 -11.11 -3.59 11.11zm-18.28 -31.87l-11.68 -0.02 9.46 6.85 -3.63 11.09 9.44 -6.88 9.44 6.88 -3.63 -11.09 9.46 -6.85 -11.68 0.02 -3.59 -11.11 -3.59 11.11zm-32.55 -21.16l-3.63 11.1 9.44 -6.88 9.43 6.88 -3.62 -11.1 9.46 -6.84 -11.68 0.02 -3.59 -11.11 -3.6 11.11 -11.68 -0.02 9.47 6.84zm-39.66 39.65l15.95 0.09c3.94,0.03 12.93,-19.79 1.95,-30.12 -8.67,-8.15 -17.89,-23.12 -17.89,-23.12 0,0 -9.21,14.97 -17.89,23.12 -10.98,10.32 -1.98,30.15 1.95,30.12l15.95 -0.09zm4.67 20.21l0 13.99c0,0.3 -0.05,0.59 -0.12,0.87l6.46 0c-0.08,-0.28 -0.12,-0.58 -0.12,-0.87l0 -13.99c0,-1.88 1.54,-3.41 3.41,-3.41 1.87,0 3.41,1.53 3.41,3.41l0 13.99c0,0.3 -0.05,0.59 -0.11,0.87l3.99 0 0 -27.59 -43.36 0 0 27.59 6.72 0c-0.07,-0.28 -0.11,-0.58 -0.11,-0.87l0 -13.99c0,-1.88 1.53,-3.41 3.41,-3.41 1.87,0 3.4,1.53 3.4,3.41l0 13.99c0,0.3 -0.03,0.59 -0.11,0.87l6.45 0c-0.07,-0.28 -0.11,-0.58 -0.11,-0.87l0 -13.99c0,-1.88 1.53,-3.41 3.41,-3.41 1.87,0 3.41,1.53 3.41,3.41zm-29.95 36.43c16.92,3.81 34.09,3.96 51.53,0l0 -19.43c-17.18,3.95 -34.36,4.86 -51.53,0l0 19.43zm41.53 48.53c0,0 0.53,1.74 2.48,4.52 1.95,2.77 10.84,9.81 10.84,9.81l-8.07 0.25 -0.29 8.45 -5.83 4.95c0,0 2.43,6.52 1.65,8.85 -0.77,2.33 -1.55,2.14 -4.47,3.5 -2.92,1.36 -0.49,5.83 -0.49,5.83l15.86 0.38c0,0 0.49,0.78 3.11,2.82 2.62,2.04 9.72,4.57 10.21,4.57 0.49,0 1.85,2.23 1.85,2.23l5.54 3.01 0.97 -3.3 3.01 -0.09c0,0 0,2.63 0.87,3.69 0.87,1.06 3.89,-1.95 4.57,-3.4 0.68,-1.46 0.87,-6.61 0.87,-6.61 0,0 -6.7,3.01 -13.22,3.01 -6.52,0 -16.33,-8.65 -16.33,-8.65 0,0 3.3,-3.6 3.3,-7.19 0,-3.6 -3.79,-3.79 -7.69,-6.61 -3.88,-2.82 -1.55,-5.53 -1.55,-5.53 0,0 2.62,-0.78 5.34,-0.4 2.73,0.4 1.27,1.75 3.99,3.2 2.72,1.46 11.27,2.82 11.27,2.82l1.16 6.32c1.17,6.32 4.57,12.2 6.98,11.91 2.41,-0.29 7.09,-3.83 8.45,-5.67 1.36,-1.84 2.29,-8.54 2.29,-8.54 0,0 4.76,0.78 6.52,1.36 1.74,0.59 6.42,1.17 6.42,1.17 0,0 -0.1,13.51 -0.1,16.33 0,2.82 0.49,4.18 1.07,4.95 0.58,0.78 2.82,-0.58 3.2,-1.06 0.38,-0.49 0.49,-18.36 0.49,-18.36 0,0 3.3,0.09 4.96,0.09 1.65,0 9.72,-0.09 9.72,-0.09 0,0 0.1,0.39 0.3,1.74 0.19,1.36 0.73,10.64 0.73,10.64l2.33 1.46 0.78 -14.45c0,0 4.18,-1.95 3.4,-3.01 -0.78,-1.07 -4.96,-0.59 -4.96,-0.59 0,0 -1.75,-6.51 -2.72,-8.54 -0.97,-2.04 -2.54,-10.3 -2.54,-10.3l2.63 0.09c0,0 2.63,3.79 3.98,6.03 1.37,2.23 6.62,13.5 8.17,14.77 1.56,1.26 3.01,-1.07 2.82,-1.95 -0.19,-0.87 -9.04,-14.38 -10.59,-16.23 -1.56,-1.85 0,-4.66 0,-4.66 0,0 2.63,1.75 4.09,3.41 1.45,1.65 5.1,7.57 6.7,9.42 1.61,1.86 5.65,-0.19 5.65,-0.19 0,0 -7.98,-11.07 -10.31,-14.58 -2.33,-3.5 -16.33,-16.32 -37.72,-28.55 -21.39,-12.24 -48.23,-15.93 -48.23,-15.93l3.32 4.46 -3.31 3.3 15.85 0 0.38 3.01c0,0 -15.94,3.21 -16.52,3.41 -0.59,0.19 0.19,4.37 0.19,4.37 0,0 1.17,-0.38 10.02,-2.04 8.85,-1.65 9.72,5.53 9.72,5.53 0,0 0,0.1 -6.42,2.43 -6.42,2.33 -16.72,8.45 -16.72,8.45zm17.39 -3.79c3.98,-1.55 14.59,-0.38 14.59,-0.38l-14.49 14.47c0,0 -5.06,-1.95 -6.81,-3.41 -1.74,-1.46 -3.29,-3.77 -3.5,-3.59 0,0 6.23,-5.54 10.21,-7.1zm3.98 15.83l12.16 -12.53c0,0 8.07,1.46 10.89,3.69 2.82,2.23 4.38,6.31 4.28,6.89 -0.09,0.59 1.65,3.11 2.14,2.63 0.49,-0.49 1.36,-3.98 1.36,-3.98 0,0 2.63,-1.26 4.87,-0.58 2.24,0.68 2.33,6.8 2.33,6.8l0.4 16.7 -11.48 -1.85c0,0 -0.49,-2.52 0.19,-5.83 0.68,-3.3 0.68,-6.41 0.68,-6.41 0,0 -3.5,-0.97 -3.79,-0.4l-4.18 8.84c0,0 -10.12,-4.86 -13.23,-7.38 -3.11,-2.52 -6.61,-6.61 -6.61,-6.61zm-1.75 3.11l0.2 0.24c0.84,1.02 4.17,4.99 6.02,6.17 2.14,1.36 14.49,8.56 14.49,8.56l0.49 9.62c0,0 -0.77,3.1 -2.82,-0.78 -2.04,-3.88 -4.38,-7.38 -5.15,-8.54 -0.78,-1.17 -11.28,-7.29 -12.64,-8.45 -1.36,-1.17 -2.82,-3.69 -2.82,-3.69 0,0 -0.4,-1.95 0.92,-2.54l1.31 -0.58zm44.68 17.29l0.09 -20.2c0,0 1.07,-0.59 3.21,0.38 2.14,0.97 3.5,3.5 4.96,5.73 1.46,2.24 4.38,14.38 4.38,14.38l-12.64 -0.29zm-111.27 -17c3.11,1.55 5.15,3.3 8.75,4.18 3.6,0.87 4.38,-1.65 4.38,-1.65 0,0 -0.1,-1.55 -1.18,-1.84 -1.06,-0.29 -1.85,-4.96 -5.64,-7.88 -3.79,-2.91 -8.36,1.46 -8.36,1.46l-1.06 2.24c0,0 0,1.94 3.11,3.5zm-67.28 35.65c0,0 4.47,-3.01 4.96,-5.24 0.49,-2.24 -1.27,-3.89 -1.27,-3.89 0,0 -3.4,2.24 -3.88,5.64 -0.49,3.41 0.19,3.5 0.19,3.5zm93.22 4.33l-19.64 -16.38 14.19 -11.66 -0.68 -6.61 -16.33 15.64 -14.97 -16.72 1.06 -3.88c0.4,-1.36 2.14,-0.97 2.14,-0.97 0,0 0.1,-3.2 1.17,-5.73 1.08,-2.54 2.14,-0.88 4.19,-2.43 2.04,-1.55 -1.07,-6.8 -1.07,-6.8 0,0 -6.22,3.41 -8.75,4.96 -2.54,1.55 0.1,3.6 0.1,5.64 0,2.04 -2.15,4.47 -2.15,4.47l-10.4 -13.71 16.49 -10.79 -3.17 -1.8 -14.92 9.38 -5.01 -8.16c0,0 2.48,-3.21 5.4,-5.54 2.92,-2.33 11.77,-5.09 11.77,-5.09 0,0 -0.49,1.65 3.2,4.22 3.7,2.58 7.98,2.62 7.98,2.62l2.82 11.46c0,0 6.99,-1.95 9.34,0.09 2.33,2.05 -1.66,1.37 -4.48,2.53 -2.82,1.17 -1.36,1.65 -0.09,3.78 1.26,2.14 3.79,-1.84 6.22,-1.74 2.42,0.09 3.01,2.52 4.56,2.82 1.56,0.29 2.14,-1.56 2.14,-2.04 0,-0.49 -6.9,-8.85 -6.21,-10.99 0.68,-2.13 5.34,-1.45 5.34,-1.45l-4.28 -23.32c0.09,0.5 -10.53,2.43 -10.53,2.43 0,0 -23.34,3.89 -45.12,19.43 -21.77,15.55 -36.07,39.35 -36.07,39.35 0,0 -0.09,3.11 0.78,3.6 0.87,0.49 4.57,-1.56 4.57,-1.56 0,0 6.9,5.15 10.89,7.69 3.98,2.52 19.16,10.98 19.16,10.98l0.87 6.89 3.11 -3.1c0,0 15.41,6.11 18.04,6.11 2.63,0 3.5,-1.99 3.5,-1.99l-22.75 -12.14c-22.76,-12.14 -30.67,-19.62 -30.67,-19.62 0,0 2.14,-3.5 10.3,-13.8 8.17,-10.3 24.03,-18.95 24.03,-18.95l5.93 9.33c0,0 -2.43,2.23 -10.41,9.22 -7.97,6.99 -16.42,19.43 -16.42,19.43l5.15 2.43c0,0 3.89,-7.48 9.24,-13.99 5.35,-6.51 14.73,-13.16 14.73,-13.16l10.8 13.5 -9.58 8.89 1.75 4.86 10.98 -9.76 15.66 16.7 -13.61 18.07 5.64 1.06 11.96 -16.36 17.75 14.86 -3.85 5.49 2.54 1.12c0,0 2.52,-2.57 4.28,-4.22 1.74,-1.65 1.4,-4.62 1.4,-4.62zm-10.06 -96.48l14.93 107.45c0,0 0.19,0.06 1.75,1.27 1.55,1.21 3.54,-1.07 3.54,-1.07l11.28 -107.64 -31.51 0zm-0.49 143.46c-5.49,-7.92 -15.39,-17.15 -32.86,-21.48 -9.83,-2.44 -19.95,-3.91 -29.36,-4.75 -22.94,-2.08 -41.63,-0.5 -41.63,-0.5 0,0 5.06,5.64 15.16,6.22 8.57,0.49 25.62,0.43 37.03,1.69 2.06,0.24 3.95,0.51 5.56,0.84 10.5,2.14 12.06,2.91 16.73,5.64 4.66,2.72 6.61,4.86 6.61,4.86 0,0 -3.22,-0.05 -7.83,-0.52 -4.67,-0.49 -10.8,-1.41 -16.48,-3.17 -11.27,-3.5 -30.52,-0.59 -30.52,-0.59 0,0 2.33,5.64 13.81,5.83 11.47,0.19 41.9,1.05 41.9,1.05 0,0 4.19,3.61 5.55,5.36 1.36,1.74 1.75,3.84 1.75,3.84 0,0 -14.49,-0.29 -21.68,-1.46 -7.2,-1.17 -13.03,-2.14 -13.03,-2.14 0,0 8.75,8.35 23.91,10.68 15.17,2.34 31.8,2.29 31.8,2.29 0,0 -1.28,-6.27 -6.43,-13.68zm72.11 -24.47c-21.37,5.3 -31.42,17.93 -35.91,26.52 -2.63,5.01 -3.37,8.65 -3.37,8.65 0,0 16.64,0.05 31.8,-2.29 15.17,-2.33 23.91,-10.68 23.91,-10.68 0,0 -5.83,0.97 -13.03,2.14 -7.2,1.17 -21.68,1.46 -21.68,1.46 0,0 0.38,-2.04 1.7,-3.77 0.02,-0.02 0.03,-0.05 0.06,-0.07 1.36,-1.75 5.55,-5.36 5.55,-5.36 0,0 3.72,-0.1 9.06,-0.25 9.91,-0.27 25.38,-0.68 32.83,-0.8 11.48,-0.19 13.81,-5.83 13.81,-5.83 0,0 -19.25,-2.92 -30.52,0.59 -2.63,0.8 -5.33,1.44 -7.96,1.93 -8.67,1.64 -16.35,1.75 -16.35,1.75 0,0 1.95,-2.14 6.61,-4.86 4.66,-2.73 6.22,-3.5 16.73,-5.64 2.31,-0.48 5.18,-0.84 8.36,-1.11 11.25,-0.99 26.34,-0.96 34.22,-1.41 10.11,-0.59 15.17,-6.22 15.17,-6.22 0,0 -18.05,-1.53 -40.45,0.38 -9.73,0.84 -20.28,2.32 -30.53,4.87zm-28.93 -12.75c-24.12,4.87 -26.83,15.94 -26.83,15.94 0,0 -6.43,-9.33 -15.37,-14.38 -8.95,-5.05 -29.95,-5.43 -29.95,-5.43l-49.62 -0.09 -47.95 -0.09 -11.73 -0.02c0,0 0,2.34 2.14,4.09 1.4,1.14 2.47,3.19 13.99,3.84 6.11,0.34 15.18,0.27 28.79,-0.53 7.8,-0.46 15.14,-0.45 21.92,-0.13 27.39,1.29 45.6,7.56 47.31,7.71 2.14,0.2 15.37,3.89 28.2,18.27 2.56,2.87 4.49,5.92 5.96,8.99 5.87,12.28 4.41,25.07 7.06,29.88 3.3,6.03 9.34,7.39 12.45,6.99 3.11,-0.38 5.44,-3.5 4.28,-4.66 -1.17,-1.17 -5.06,-7.19 -7.01,-17.87 -0.86,-4.73 -0.35,-9.91 0.83,-14.69 1.48,-6.03 4.01,-11.43 6.18,-14.46 3.89,-5.43 16.14,-12.63 27.03,-16.7 6.61,-2.48 25.7,-4.3 45.48,-5.58 12.86,-0.83 26.01,-1.43 36.19,-1.81 5.52,-0.2 9.79,-0.53 13.09,-0.93 12.18,-1.45 11.22,-3.73 11.22,-3.73 0,0 -3.49,0.02 -9.29,0.09 -10.18,0.11 -27.49,0.36 -45.84,0.87 -27.27,0.77 -56.82,2.13 -68.55,4.48zm106.89 144.77c0,0 -12.64,2.91 -16.43,3.69 -3.79,0.77 -6.02,0.38 -6.02,0.38 0,0 0.58,10.3 6.9,13.12 6.32,2.82 16.91,2.14 16.91,2.14 0,0 -3.5,-2.62 -4.37,-6.7 -0.87,-4.09 -0.97,-5.55 0.29,-7.69 1.26,-2.13 2.72,-4.95 2.72,-4.95zm0.78 -45.86l19.79 36.71c0,0 -10.31,5.53 -13.72,8.07 -3.4,2.52 -4.96,5.15 -5.93,8.74 -0.97,3.6 -0.09,7.2 4.47,9.81 4.57,2.63 14.4,-1.46 14.4,-1.46 0,0 12.45,-0.77 38.89,-39.63 26.45,-38.86 48.52,-53.92 48.52,-53.92l-37.87 0.43c0,0 -1.07,-4.22 -1.9,-7.04 -0.83,-2.82 -1.75,-9.28 -0.58,-15.88 1.17,-6.61 5.39,-15.02 5.39,-15.02 0,0 -5.3,2.62 -9.72,5.64 -4.42,3.01 -7.88,5.64 -15.46,13.22 -7.58,7.57 -29.36,42.94 -35,47.22 -5.64,4.28 -11.27,3.11 -11.27,3.11zm-275.25 35.36c90.75,30.66 186.53,29.06 286.62,-0.38l-27.22 -50.14c-81.45,18.29 -158.65,17.98 -231.79,0l-27.62 50.52zm35.76 -10.46c3.46,0.28 6.95,0.58 10.43,0.87 -0.28,1.9 -0.21,3.42 0.24,4.5 0.74,1.75 2.18,2.76 4.35,3.06 1.58,0.2 2.92,-0.02 3.99,-0.74 1.06,-0.7 1.73,-1.61 1.98,-2.69 0.24,-1.02 0.01,-2 -0.61,-2.92 -0.63,-0.93 -2.31,-1.9 -5.04,-3.03 -4.41,-1.83 -7.31,-3.98 -8.68,-6.25 -1.38,-2.27 -1.62,-4.92 -0.69,-7.98 0.61,-1.99 1.66,-3.81 3.16,-5.47 1.48,-1.64 3.33,-2.85 5.51,-3.61 2.18,-0.76 4.91,-0.89 8.25,-0.48 4.12,0.51 7.05,1.87 8.86,4.02 1.82,2.15 2.58,5.27 2.25,9.47 -3.4,-0.12 -6.73,-0.28 -10.06,-0.48 0.16,-1.83 -0.09,-3.21 -0.72,-4.13 -0.65,-0.93 -1.68,-1.47 -3.11,-1.65 -1.19,-0.15 -2.15,0.05 -2.89,0.54 -0.77,0.52 -1.28,1.21 -1.49,2.07 -0.16,0.62 -0.03,1.21 0.3,1.8 0.34,0.59 1.37,1.22 3.11,1.91 4.3,1.72 7.34,3.35 9.12,4.77 1.78,1.43 3,3.04 3.62,4.9 0.61,1.86 0.75,3.88 0.35,6.07 -0.46,2.56 -1.55,4.85 -3.28,6.87 -1.75,2.03 -3.95,3.49 -6.62,4.31 -2.61,0.8 -5.76,0.97 -9.39,0.46 -6.34,-0.88 -10.34,-2.89 -11.95,-5.85 -1.58,-2.92 -1.9,-6.38 -1,-10.36zm60.26 13.31c-4.47,-0.26 -8.95,-0.53 -13.35,-0.88 -0.95,2.15 -1.86,4.3 -2.78,6.44 -4.1,-0.32 -8.16,-0.67 -12.19,-1.07 3.5,-6.42 6.97,-12.82 10.23,-19.33 3.23,-6.46 6.28,-12.98 9.26,-19.48 3.75,0.33 7.54,0.59 11.32,0.85 1.67,6.81 3.4,13.66 5.35,20.42 1.97,6.78 4.14,13.52 6.46,20.28 -4.3,-0.14 -8.56,-0.28 -12.79,-0.5 -0.53,-2.24 -1.04,-4.48 -1.51,-6.72zm-1.77 -8.83c-0.48,-2.43 -0.95,-4.88 -1.38,-7.32 -0.43,-2.43 -0.84,-4.88 -1.21,-7.32 -0.91,2.37 -1.79,4.73 -2.69,7.07 -0.92,2.37 -1.88,4.7 -2.82,7.04 2.68,0.2 5.4,0.36 8.1,0.53zm20.36 -23.81c3.22,0.1 6.49,0.17 9.77,0.26 2.3,3.72 4.64,7.41 7.08,11.07 2.44,3.68 5.02,7.32 7.67,10.98 -0.34,-3.66 -0.65,-7.31 -0.95,-10.98 -0.3,-3.66 -0.67,-7.31 -0.97,-10.98 3.29,-0.04 6.62,-0.1 9.92,-0.16 0.86,6.61 1.72,13.22 2.58,19.82 0.86,6.6 1.72,13.21 2.58,19.82 -3.88,0.11 -7.76,0.24 -11.62,0.28 -2.77,-3.62 -5.5,-7.23 -8.11,-10.86 -2.59,-3.62 -5.05,-7.31 -7.48,-11 0.11,3.66 0.25,7.31 0.38,10.95 0.12,3.66 0.21,7.3 0.35,10.96 -3.86,-0.05 -7.7,-0.1 -11.53,-0.15 0.05,-6.67 0.11,-13.33 0.17,-20.01 0.07,-6.67 0.09,-13.33 0.16,-20zm37.13 0.06c10.63,-0.45 21.17,-1.11 31.6,-1.99 0.91,3.23 1.86,6.43 2.76,9.65 -3.64,0.32 -7.3,0.63 -10.96,0.94 1.21,4.91 2.41,9.83 3.59,14.76 1.18,4.92 2.39,9.85 3.58,14.77 -4.06,0.3 -8.07,0.6 -12.13,0.85 -0.97,-4.95 -1.94,-9.9 -2.91,-14.84 -0.97,-4.95 -1.92,-9.9 -2.91,-14.85 -3.71,0.18 -7.44,0.35 -11.14,0.5 -0.46,-3.26 -0.97,-6.52 -1.48,-9.79zm48.36 36.47c-2.03,-6.5 -4.04,-12.98 -6.04,-19.47 -2,-6.48 -4.03,-12.98 -6.02,-19.47 5.6,-0.6 11.2,-1.26 16.72,-1.97 3.07,-0.4 5.51,-0.42 7.37,-0.03 1.86,0.39 3.64,1.34 5.39,2.85 1.72,1.53 3.11,3.51 4.19,5.91 0.93,2.1 1.38,3.97 1.28,5.62 -0.11,1.66 -0.72,3.09 -1.72,4.28 -0.65,0.76 -1.67,1.46 -3.11,2.1 1.46,0.27 2.63,0.6 3.4,0.96 0.51,0.25 1.36,0.83 2.54,1.71 1.21,0.89 2.04,1.58 2.54,2.09 1.64,1.67 3.35,3.36 5.02,5.01 1.7,1.66 3.44,3.32 5.16,4.96 -4.21,0.76 -8.47,1.54 -12.74,2.22 -1.81,-1.79 -3.6,-3.58 -5.38,-5.38 -1.78,-1.79 -3.53,-3.59 -5.25,-5.41 -1.32,-1.4 -2.31,-2.32 -3.09,-2.68 -1.01,-0.48 -2.03,-0.64 -3.02,-0.52 -0.33,0.03 -0.66,0.08 -0.94,0.11 0.92,2.62 1.85,5.22 2.77,7.83 0.93,2.6 1.83,5.21 2.78,7.81 -3.93,0.49 -7.9,0.99 -11.83,1.45zm3.67 -24.37c1.49,-0.18 3.02,-0.4 4.49,-0.6 0.49,-0.07 1.33,-0.38 2.6,-0.92 0.61,-0.25 1.04,-0.72 1.21,-1.44 0.18,-0.71 0.11,-1.48 -0.22,-2.31 -0.51,-1.25 -1.22,-2.14 -2.16,-2.72 -0.94,-0.57 -2.32,-0.73 -4.19,-0.49 -1.51,0.2 -3.02,0.4 -4.53,0.59 0.93,2.62 1.86,5.25 2.78,7.88zm19.25 -19.27c3.17,-0.54 6.35,-1.09 9.52,-1.63 3.2,6.12 6.42,12.25 9.62,18.37 3.19,6.11 6.39,12.24 9.59,18.36 -3.63,0.78 -7.3,1.57 -10.93,2.35 -2.95,-6.25 -5.93,-12.5 -8.88,-18.72 -2.95,-6.25 -5.93,-12.48 -8.91,-18.73zm-193.29 51.09c-3.79,-0.78 -16.42,-3.69 -16.42,-3.69 0,0 1.45,2.82 2.72,4.95 1.27,2.14 1.17,3.6 0.3,7.69 -0.88,4.07 -4.38,6.7 -4.38,6.7 0,0 10.6,0.68 16.92,-2.14 6.33,-2.82 6.9,-13.12 6.9,-13.12 0,0 -2.23,0.38 -6.03,-0.38zm-28.47 -52.66c-5.65,-4.28 -27.42,-39.64 -35,-47.22 -7.58,-7.58 -11.05,-10.21 -15.46,-13.22 -4.42,-3.01 -9.73,-5.64 -9.73,-5.64 0,0 4.23,8.41 5.4,15.02 1.17,6.6 0.25,13.06 -0.58,15.88 -0.83,2.82 -1.9,7.04 -1.9,7.04l-37.87 -0.43c0,0 22.07,15.05 48.52,53.92 26.44,38.86 38.89,39.63 38.89,39.63 0,0 9.82,4.09 14.38,1.46 4.57,-2.62 5.46,-6.21 4.48,-9.81 -0.97,-3.59 -2.54,-6.21 -5.93,-8.74 -3.41,-2.54 -13.72,-8.07 -13.72,-8.07l19.79 -36.71c0,0 -5.64,1.17 -11.27,-3.11zm104.1 -57.1c-1.09,-1.21 -2.61,-2.57 -3.89,-3.68 -10.77,-0.28 -21.55,-0.61 -32.33,-0.85l6.41 1.07c4.35,0.72 8.68,1.44 13.01,2.14 5.15,0.83 11.2,1.15 16.81,1.31zm26 -0.78c-1.16,-0.09 -2.32,-0.19 -3.47,-0.31 2.37,3.79 4.79,8.74 5.58,12.77l0.63 3.25 -3.3 0c-10.54,0.01 -21.83,-0.72 -32.22,-2.32 -8.26,-1.27 -19.19,-5.47 -25.38,-11.42l-6 -5.76c-2.22,-0.05 -4.44,-0.09 -6.64,-0.14 -4.35,-0.07 -9.1,-0.89 -12.72,-3.45 -1.35,-0.96 -2.91,-2.48 -3.55,-4.04l-1.35 -3.21 3.45 -0.53c9.04,-1.36 22.97,-2.04 31.75,0.68 2.12,0.66 4.3,1.2 6.51,1.65 -1.88,-0.93 -3.74,-1.91 -5.57,-2.92l-1.32 -0.27c-1.74,-0.35 -3.54,-0.59 -5.32,-0.79 -12.23,-1.36 -24.62,-0.97 -36.87,-1.68 -5.69,-0.33 -13.09,-2.73 -17.04,-7.12l-3.66 -4.07 5.46 -0.45c4.11,-0.35 8.34,-0.48 12.45,-0.55 8.54,-0.15 17.12,0.08 25.65,0.71 -0.76,-0.64 -1.52,-1.28 -2.27,-1.94 -1.1,-0.07 -2.2,-0.13 -3.3,-0.18 -7.21,-0.34 -14.43,-0.3 -21.64,0.12 -8.93,0.53 -18.29,1 -27.28,0.62 28.56,46.05 78.63,76.59 135.63,76.59 59.22,0 110.96,-32.96 138.87,-82.02 -3.78,0.39 -7.6,0.59 -11.39,0.74 -12.04,0.45 -24.09,1.03 -36.11,1.8l-3.23 0.21c-0.6,0.55 -1.2,1.09 -1.81,1.62l0.95 -0.08c9.56,-0.81 19.22,-1.11 28.81,-0.93 3.97,0.08 8.08,0.2 12.05,0.54l4.92 0.43 -3.3 3.68c-3.89,4.34 -11.24,6.7 -16.86,7.03 -11.37,0.66 -22.76,0.42 -34.14,1.41 -2.68,0.24 -5.44,0.53 -8.09,1.06 -0.91,0.19 -1.87,0.38 -2.84,0.58 -1.98,1.22 -4,2.39 -6.04,3.5l0.95 -0.17c2.59,-0.49 5.17,-1.1 7.69,-1.88 8.73,-2.71 22.62,-2.03 31.63,-0.66l3.12 0.46 -1.21 2.92c-0.63,1.52 -2.16,3.01 -3.47,3.93 -3.58,2.53 -8.28,3.35 -12.57,3.42 -10.93,0.18 -21.88,0.51 -32.81,0.8 -2.73,0.07 -5.47,0.17 -8.19,0.23 -1.44,1.25 -3.2,2.82 -4.35,4.2 5.76,-0.16 12.06,-0.48 17.4,-1.34 4.35,-0.7 8.68,-1.42 13.01,-2.14l7.89 -1.34 -5.77 5.54c-6.15,5.91 -17.03,10.08 -25.25,11.35 -10.38,1.6 -21.65,2.32 -32.18,2.31l-3.01 0 0.6 -2.95c0.59,-2.98 2.21,-6.64 3.59,-9.3 0.21,-0.4 0.43,-0.8 0.65,-1.2 -1.38,0.2 -2.77,0.38 -4.17,0.54 -0.08,0.31 -0.16,0.62 -0.24,0.93 -1.07,4.35 -1.6,9.18 -0.79,13.59 0.74,4.04 1.89,8.14 3.6,11.88 0.52,1.13 1.78,3.7 2.67,4.58 0.28,0.29 0.52,0.62 0.7,0.98 1.9,3.87 -3,7.75 -6.53,8.19 -6.11,0.77 -12.22,-3.09 -15.11,-8.35 -1.77,-3.23 -2.14,-9.37 -2.63,-13.07 -0.77,-5.88 -1.92,-11.56 -4.5,-16.94 -0.22,-0.46 -0.45,-0.91 -0.68,-1.35zm-87.96 -44.56c-23.3,-26.25 -37.63,-61.91 -37.63,-101.2 0,-51.05 24.17,-95.98 60.81,-122.12 -52.14,27.39 -87.83,83.18 -87.83,147.56 0,27.27 6.4,52.99 17.75,75.67l46.9 0.09zm239.87 -1.39c10.94,-22.36 17.11,-47.62 17.11,-74.36 0,-60.53 -31.55,-113.47 -78.67,-142.34 32.77,26.65 53.97,69.09 53.97,116.9 0,39 -14.12,74.43 -37.13,100.63 14.44,-0.39 28.91,-0.65 43.36,-0.81l1.35 -0.02z"/>
  </g>
 </g>
</svg>
