<?xml version="1.0" encoding="UTF-8"?>
<!DOCTYPE svg PUBLIC "-//W3C//DTD SVG 1.1//EN" "http://www.w3.org/Graphics/SVG/1.1/DTD/svg11.dtd">
<!-- Creator: CorelDRAW 2021.5 -->
<svg xmlns="http://www.w3.org/2000/svg" xml:space="preserve" width="3.33369in" height="3.33369in" version="1.1" style="shape-rendering:geometricPrecision; text-rendering:geometricPrecision; image-rendering:optimizeQuality; fill-rule:evenodd; clip-rule:evenodd"
viewBox="0 0 938.61 938.61"
 xmlns:xlink="http://www.w3.org/1999/xlink"
 xmlns:xodm="http://www.corel.com/coreldraw/odm/2003">
 <defs>
  <style type="text/css">
   <![CDATA[
    .fil2 {fill:none}
    .fil1 {fill:url(#id0)}
    .fil0 {fill:url(#id1)}
   ]]>
  </style>
  <linearGradient id="id0" gradientUnits="userSpaceOnUse" x1="213.13" y1="352.19" x2="859.32" y2="572.47">
   <stop offset="0" style="stop-opacity:1; stop-color:#10693D"/>
   <stop offset="1" style="stop-opacity:1; stop-color:#0A4D2A"/>
  </linearGradient>
  <linearGradient id="id1" gradientUnits="userSpaceOnUse" xlink:href="#id0" x1="174.72" y1="310.86" x2="917.79" y2="564.16">
  </linearGradient>
 </defs>
 <g id="Layer_x0020_1">
  <metadata id="CorelCorpID_0Corel-Layer"/>
  <g id="_2303774138496">
   <path class="fil0" d="M177.47 820.25l291.83 -681.3 291.84 681.3 -583.66 0zm-20.28 13.37l624.21 0 -156.05 -364.32 -156.06 -364.31 -312.1 728.63zm0 0z"/>
   <path class="fil1" d="M740.72 806.79l-271.42 -633.64 -271.41 633.64 542.83 0zm-289.67 -404.08l-8.38 25.61 21.78 -15.87 21.77 15.87 -8.38 -25.61 21.83 -15.78 -26.95 0.05 -8.28 -25.64 -8.29 25.64 -26.95 -0.05 21.83 15.78zm-70.95 145.66l-3.16 -9.8 -3.16 9.8 -10.3 -0.02 8.35 6.03 -3.21 9.79 8.33 -6.07 8.33 6.07 -3.2 -9.79 8.35 -6.03 -10.3 0.02zm16.25 -40.13l-10.3 0.02 -3.16 -9.8 -3.16 9.8 -10.3 -0.02 8.35 6.03 -3.21 9.78 8.33 -6.06 8.33 6.06 -3.2 -9.78 8.35 -6.03zm16.81 -28.11l-10.3 0.02 -3.17 -9.8 -3.16 9.8 -10.3 -0.02 8.35 6.04 -3.2 9.78 8.32 -6.07 8.33 6.07 -3.2 -9.78 8.35 -6.04zm18.87 -8.85l-3.2 -9.79 8.36 -6.03 -10.3 0.02 -3.17 -9.8 -3.16 9.8 -10.3 -0.02 8.35 6.03 -3.19 9.79 8.32 -6.07 8.33 6.07zm124.79 67.3l-3.16 9.8 -10.3 -0.02 8.35 6.03 -3.2 9.79 8.33 -6.07 8.33 6.07 -3.21 -9.79 8.35 -6.03 -10.3 0.02 -3.16 -9.8zm-11.4 -30.31l-10.3 -0.02 8.35 6.03 -3.21 9.78 8.33 -6.06 8.33 6.06 -3.2 -9.78 8.35 -6.03 -10.3 0.02 -3.16 -9.8 -3.16 9.8zm-16.12 -28.11l-10.3 -0.02 8.35 6.04 -3.2 9.78 8.33 -6.07 8.33 6.07 -3.2 -9.78 8.35 -6.04 -10.3 0.02 -3.16 -9.8 -3.17 9.8zm-28.71 -18.67l-3.21 9.79 8.33 -6.07 8.32 6.07 -3.19 -9.79 8.35 -6.03 -10.3 0.02 -3.16 -9.8 -3.17 9.8 -10.3 -0.02 8.36 6.03zm-34.98 34.97l14.07 0.08c3.48,0.03 11.4,-17.46 1.72,-26.57 -7.65,-7.19 -15.78,-20.4 -15.78,-20.4 0,0 -8.13,13.21 -15.78,20.4 -9.68,9.11 -1.75,26.6 1.72,26.57l14.07 -0.08zm4.12 17.83l0 12.34c0,0.26 -0.04,0.52 -0.11,0.77l5.7 0c-0.07,-0.25 -0.11,-0.51 -0.11,-0.77l0 -12.34c0,-1.66 1.36,-3.01 3.01,-3.01 1.65,0 3.01,1.35 3.01,3.01l0 12.34c0,0.26 -0.04,0.52 -0.1,0.77l3.52 0 0 -24.34 -38.25 0 0 24.34 5.93 0c-0.06,-0.25 -0.1,-0.51 -0.1,-0.77l0 -12.34c0,-1.66 1.35,-3.01 3.01,-3.01 1.65,0 3,1.35 3,3.01l0 12.34c0,0.26 -0.03,0.52 -0.1,0.77l5.69 0c-0.06,-0.25 -0.1,-0.51 -0.1,-0.77l0 -12.34c0,-1.66 1.35,-3.01 3.01,-3.01 1.65,0 3.01,1.35 3.01,3.01zm-26.42 32.14c14.93,3.36 30.07,3.49 45.45,0l0 -17.14c-15.16,3.48 -30.31,4.28 -45.45,0l0 17.14zm36.64 42.81c0,0 0.47,1.54 2.19,3.98 1.72,2.45 9.56,8.65 9.56,8.65l-7.12 0.22 -0.26 7.46 -5.14 4.36c0,0 2.15,5.75 1.46,7.81 -0.68,2.06 -1.37,1.89 -3.94,3.08 -2.58,1.2 -0.43,5.14 -0.43,5.14l13.99 0.34c0,0 0.43,0.69 2.75,2.49 2.32,1.8 8.58,4.03 9.01,4.03 0.43,0 1.63,1.97 1.63,1.97l4.89 2.66 0.86 -2.92 2.65 -0.08c0,0 0,2.32 0.77,3.25 0.77,0.94 3.43,-1.72 4.03,-3 0.6,-1.29 0.77,-5.83 0.77,-5.83 0,0 -5.91,2.66 -11.66,2.66 -5.75,0 -14.41,-7.63 -14.41,-7.63 0,0 2.92,-3.17 2.92,-6.34 0,-3.17 -3.35,-3.34 -6.78,-5.83 -3.42,-2.49 -1.37,-4.88 -1.37,-4.88 0,0 2.32,-0.69 4.71,-0.35 2.41,0.35 1.12,1.55 3.52,2.82 2.4,1.29 9.94,2.49 9.94,2.49l1.03 5.57c1.03,5.57 4.03,10.76 6.16,10.5 2.13,-0.26 6.25,-3.37 7.46,-5 1.2,-1.63 2.02,-7.54 2.02,-7.54 0,0 4.2,0.69 5.75,1.2 1.54,0.52 5.66,1.03 5.66,1.03 0,0 -0.09,11.92 -0.09,14.41 0,2.49 0.43,3.68 0.95,4.36 0.51,0.69 2.49,-0.51 2.83,-0.94 0.34,-0.43 0.43,-16.19 0.43,-16.19 0,0 2.92,0.08 4.37,0.08 1.46,0 8.58,-0.08 8.58,-0.08 0,0 0.09,0.34 0.26,1.54 0.17,1.2 0.65,9.38 0.65,9.38l2.06 1.29 0.69 -12.75c0,0 3.68,-1.72 3,-2.65 -0.69,-0.95 -4.37,-0.52 -4.37,-0.52 0,0 -1.55,-5.74 -2.4,-7.54 -0.86,-1.8 -2.24,-9.09 -2.24,-9.09l2.32 0.08c0,0 2.32,3.34 3.51,5.32 1.21,1.97 5.84,11.91 7.21,13.03 1.38,1.11 2.66,-0.95 2.49,-1.72 -0.17,-0.77 -7.98,-12.69 -9.34,-14.32 -1.38,-1.63 0,-4.11 0,-4.11 0,0 2.32,1.55 3.6,3.01 1.28,1.46 4.5,6.68 5.91,8.31 1.42,1.64 4.98,-0.17 4.98,-0.17 0,0 -7.04,-9.76 -9.1,-12.86 -2.06,-3.08 -14.41,-14.4 -33.27,-25.19 -18.87,-10.8 -42.55,-14.06 -42.55,-14.06l2.93 3.93 -2.92 2.92 13.98 0 0.34 2.65c0,0 -14.06,2.84 -14.58,3.01 -0.52,0.17 0.17,3.85 0.17,3.85 0,0 1.03,-0.34 8.84,-1.8 7.81,-1.46 8.58,4.88 8.58,4.88 0,0 0,0.09 -5.66,2.15 -5.66,2.06 -14.74,7.46 -14.74,7.46zm15.34 -3.34c3.51,-1.37 12.87,-0.34 12.87,-0.34l-12.78 12.77c0,0 -4.46,-1.72 -6.01,-3.01 -1.54,-1.29 -2.91,-3.32 -3.09,-3.16 0,0 5.49,-4.89 9.01,-6.26zm3.51 13.97l10.72 -11.05c0,0 7.12,1.29 9.6,3.25 2.49,1.97 3.86,5.57 3.77,6.08 -0.08,0.52 1.46,2.75 1.89,2.32 0.43,-0.43 1.2,-3.51 1.2,-3.51 0,0 2.32,-1.11 4.29,-0.51 1.98,0.6 2.06,6 2.06,6l0.35 14.74 -10.12 -1.63c0,0 -0.43,-2.23 0.17,-5.14 0.6,-2.92 0.6,-5.65 0.6,-5.65 0,0 -3.08,-0.86 -3.34,-0.35l-3.68 7.8c0,0 -8.93,-4.28 -11.67,-6.51 -2.75,-2.23 -5.83,-5.83 -5.83,-5.83zm-1.55 2.75l0.18 0.21c0.74,0.9 3.67,4.4 5.31,5.44 1.89,1.2 12.78,7.55 12.78,7.55l0.43 8.49c0,0 -0.68,2.74 -2.49,-0.69 -1.8,-3.42 -3.86,-6.51 -4.54,-7.54 -0.69,-1.03 -9.95,-6.43 -11.15,-7.46 -1.2,-1.03 -2.49,-3.25 -2.49,-3.25 0,0 -0.35,-1.72 0.81,-2.24l1.16 -0.51zm39.41 15.26l0.08 -17.82c0,0 0.95,-0.52 2.84,0.34 1.89,0.86 3.08,3.08 4.37,5.05 1.29,1.98 3.86,12.69 3.86,12.69l-11.15 -0.26zm-98.16 -15c2.75,1.37 4.54,2.92 7.72,3.68 3.17,0.77 3.86,-1.46 3.86,-1.46 0,0 -0.09,-1.37 -1.04,-1.63 -0.94,-0.26 -1.63,-4.37 -4.97,-6.95 -3.34,-2.57 -7.38,1.29 -7.38,1.29l-0.94 1.98c0,0 0,1.71 2.75,3.08zm-59.35 31.45c0,0 3.94,-2.66 4.37,-4.62 0.43,-1.98 -1.12,-3.43 -1.12,-3.43 0,0 -3,1.98 -3.42,4.97 -0.43,3.01 0.17,3.08 0.17,3.08zm82.23 3.82l-17.32 -14.45 12.52 -10.28 -0.6 -5.83 -14.41 13.8 -13.21 -14.74 0.94 -3.42c0.35,-1.2 1.89,-0.86 1.89,-0.86 0,0 0.09,-2.82 1.03,-5.05 0.95,-2.24 1.89,-0.78 3.69,-2.15 1.8,-1.37 -0.95,-6 -0.95,-6 0,0 -5.49,3.01 -7.72,4.37 -2.24,1.37 0.09,3.17 0.09,4.97 0,1.8 -1.9,3.94 -1.9,3.94l-9.18 -12.09 14.55 -9.52 -2.79 -1.59 -13.16 8.28 -4.42 -7.2c0,0 2.19,-2.83 4.76,-4.89 2.57,-2.06 10.38,-4.49 10.38,-4.49 0,0 -0.43,1.46 2.82,3.72 3.27,2.28 7.04,2.32 7.04,2.32l2.49 10.11c0,0 6.17,-1.72 8.24,0.08 2.06,1.81 -1.47,1.21 -3.95,2.24 -2.49,1.03 -1.2,1.46 -0.08,3.33 1.11,1.89 3.34,-1.63 5.49,-1.54 2.14,0.08 2.65,2.23 4.02,2.49 1.38,0.26 1.89,-1.38 1.89,-1.8 0,-0.43 -6.09,-7.81 -5.48,-9.69 0.6,-1.88 4.71,-1.28 4.71,-1.28l-3.77 -20.58c0.08,0.44 -9.28,2.15 -9.28,2.15 0,0 -20.59,3.43 -39.8,17.14 -19.21,13.72 -31.82,34.71 -31.82,34.71 0,0 -0.08,2.75 0.69,3.17 0.77,0.43 4.03,-1.38 4.03,-1.38 0,0 6.09,4.54 9.6,6.78 3.51,2.23 16.9,9.68 16.9,9.68l0.77 6.08 2.75 -2.74c0,0 13.6,5.39 15.91,5.39 2.32,0 3.08,-1.76 3.08,-1.76l-20.07 -10.71c-20.08,-10.71 -27.05,-17.31 -27.05,-17.31 0,0 1.89,-3.08 9.09,-12.17 7.21,-9.09 21.19,-16.71 21.19,-16.71l5.23 8.23c0,0 -2.15,1.97 -9.18,8.14 -7.03,6.17 -14.49,17.14 -14.49,17.14l4.54 2.15c0,0 3.44,-6.6 8.15,-12.34 4.72,-5.74 13,-11.61 13,-11.61l9.52 11.91 -8.45 7.85 1.55 4.28 9.68 -8.61 13.82 14.73 -12.01 15.94 4.97 0.94 10.55 -14.44 15.65 13.11 -3.39 4.84 2.24 0.99c0,0 2.23,-2.27 3.77,-3.72 1.54,-1.46 1.24,-4.07 1.24,-4.07zm-8.88 -85.11l13.17 94.78c0,0 0.17,0.05 1.55,1.12 1.37,1.07 3.12,-0.95 3.12,-0.95l9.95 -94.95 -27.79 0zm-0.43 126.55c-4.84,-6.99 -13.58,-15.12 -28.98,-18.95 -8.68,-2.16 -17.6,-3.45 -25.9,-4.19 -20.24,-1.84 -36.72,-0.44 -36.72,-0.44 0,0 4.46,4.97 13.38,5.49 7.56,0.43 22.6,0.38 32.67,1.49 1.82,0.21 3.48,0.45 4.9,0.74 9.26,1.89 10.64,2.57 14.76,4.97 4.11,2.4 5.83,4.28 5.83,4.28 0,0 -2.84,-0.04 -6.91,-0.46 -4.12,-0.43 -9.52,-1.25 -14.54,-2.79 -9.94,-3.08 -26.93,-0.52 -26.93,-0.52 0,0 2.06,4.97 12.18,5.14 10.11,0.17 36.96,0.93 36.96,0.93 0,0 3.69,3.18 4.89,4.73 1.2,1.54 1.55,3.38 1.55,3.38 0,0 -12.78,-0.26 -19.13,-1.29 -6.35,-1.03 -11.49,-1.89 -11.49,-1.89 0,0 7.72,7.37 21.1,9.42 13.38,2.07 28.05,2.02 28.05,2.02 0,0 -1.13,-5.53 -5.67,-12.07zm63.61 -21.58c-18.85,4.67 -27.71,15.81 -31.68,23.39 -2.32,4.42 -2.98,7.63 -2.98,7.63 0,0 14.68,0.04 28.05,-2.02 13.38,-2.06 21.1,-9.42 21.1,-9.42 0,0 -5.14,0.86 -11.49,1.89 -6.35,1.03 -19.13,1.29 -19.13,1.29 0,0 0.34,-1.8 1.5,-3.32 0.02,-0.02 0.03,-0.04 0.05,-0.06 1.2,-1.55 4.89,-4.73 4.89,-4.73 0,0 3.28,-0.09 8,-0.22 8.75,-0.24 22.39,-0.6 28.96,-0.71 10.12,-0.17 12.18,-5.14 12.18,-5.14 0,0 -16.98,-2.58 -26.92,0.52 -2.32,0.71 -4.7,1.27 -7.02,1.71 -7.65,1.45 -14.43,1.55 -14.43,1.55 0,0 1.72,-1.89 5.83,-4.28 4.11,-2.41 5.49,-3.08 14.76,-4.97 2.04,-0.42 4.57,-0.74 7.38,-0.98 9.92,-0.87 23.23,-0.85 30.19,-1.25 8.92,-0.52 13.38,-5.49 13.38,-5.49 0,0 -15.92,-1.35 -35.68,0.34 -8.59,0.74 -17.89,2.05 -26.94,4.29zm-25.52 -11.25c-21.27,4.29 -23.67,14.06 -23.67,14.06 0,0 -5.67,-8.23 -13.56,-12.69 -7.9,-4.45 -26.42,-4.79 -26.42,-4.79l-43.77 -0.08 -42.3 -0.08 -10.34 -0.02c0,0 0,2.07 1.89,3.6 1.24,1.01 2.18,2.82 12.34,3.38 5.39,0.3 13.39,0.24 25.4,-0.47 6.88,-0.41 13.36,-0.4 19.34,-0.12 24.16,1.14 40.22,6.67 41.73,6.8 1.89,0.18 13.56,3.44 24.88,16.11 2.26,2.54 3.96,5.22 5.26,7.93 5.18,10.83 3.89,22.11 6.23,26.36 2.92,5.32 8.24,6.52 10.98,6.17 2.75,-0.34 4.8,-3.08 3.77,-4.11 -1.03,-1.03 -4.46,-6.34 -6.18,-15.76 -0.76,-4.17 -0.31,-8.75 0.73,-12.96 1.31,-5.32 3.53,-10.08 5.45,-12.76 3.43,-4.79 14.24,-11.14 23.84,-14.73 5.83,-2.19 22.67,-3.79 40.12,-4.92 11.34,-0.73 22.94,-1.26 31.93,-1.6 4.87,-0.18 8.64,-0.47 11.55,-0.82 10.74,-1.28 9.89,-3.29 9.89,-3.29 0,0 -3.08,0.02 -8.2,0.08 -8.98,0.1 -24.25,0.32 -40.43,0.77 -24.06,0.68 -50.13,1.88 -60.47,3.95zm94.29 127.71c0,0 -11.15,2.57 -14.5,3.25 -3.34,0.68 -5.31,0.34 -5.31,0.34 0,0 0.51,9.09 6.09,11.57 5.57,2.49 14.92,1.89 14.92,1.89 0,0 -3.08,-2.32 -3.85,-5.91 -0.77,-3.6 -0.86,-4.89 0.26,-6.78 1.11,-1.88 2.4,-4.36 2.4,-4.36zm0.69 -40.45l17.46 32.39c0,0 -9.1,4.88 -12.1,7.12 -3,2.23 -4.37,4.54 -5.23,7.71 -0.86,3.17 -0.08,6.35 3.94,8.65 4.03,2.32 12.7,-1.29 12.7,-1.29 0,0 10.98,-0.68 34.3,-34.96 23.33,-34.28 42.8,-47.56 42.8,-47.56l-33.41 0.38c0,0 -0.95,-3.72 -1.68,-6.21 -0.73,-2.49 -1.55,-8.19 -0.51,-14.01 1.03,-5.83 4.75,-13.25 4.75,-13.25 0,0 -4.67,2.32 -8.58,4.97 -3.9,2.66 -6.95,4.97 -13.64,11.66 -6.69,6.68 -25.9,37.88 -30.88,41.65 -4.97,3.77 -9.94,2.75 -9.94,2.75zm-242.81 31.19c80.06,27.04 164.55,25.64 252.84,-0.34l-24.01 -44.23c-71.85,16.13 -139.95,15.86 -204.47,0l-24.36 44.57zm31.55 -9.22c3.05,0.25 6.13,0.51 9.2,0.77 -0.25,1.68 -0.19,3.02 0.21,3.97 0.65,1.55 1.93,2.44 3.83,2.7 1.4,0.18 2.57,-0.02 3.52,-0.65 0.94,-0.62 1.53,-1.42 1.75,-2.38 0.21,-0.9 0.01,-1.77 -0.54,-2.57 -0.56,-0.82 -2.04,-1.68 -4.44,-2.68 -3.89,-1.62 -6.45,-3.51 -7.66,-5.51 -1.22,-2.01 -1.43,-4.34 -0.61,-7.04 0.54,-1.76 1.47,-3.36 2.78,-4.82 1.31,-1.45 2.94,-2.52 4.86,-3.19 1.93,-0.67 4.33,-0.79 7.28,-0.42 3.63,0.45 6.22,1.65 7.82,3.54 1.61,1.9 2.28,4.65 1.99,8.36 -3,-0.11 -5.94,-0.25 -8.88,-0.42 0.14,-1.62 -0.08,-2.84 -0.64,-3.64 -0.57,-0.82 -1.48,-1.3 -2.75,-1.46 -1.05,-0.13 -1.9,0.04 -2.55,0.48 -0.68,0.46 -1.13,1.07 -1.32,1.83 -0.14,0.55 -0.03,1.07 0.27,1.59 0.3,0.52 1.21,1.08 2.75,1.69 3.79,1.52 6.48,2.96 8.05,4.2 1.57,1.26 2.65,2.69 3.19,4.32 0.54,1.64 0.66,3.42 0.31,5.35 -0.41,2.26 -1.37,4.28 -2.9,6.06 -1.55,1.79 -3.48,3.07 -5.84,3.8 -2.31,0.71 -5.08,0.86 -8.29,0.41 -5.59,-0.78 -9.12,-2.55 -10.54,-5.16 -1.4,-2.58 -1.68,-5.63 -0.88,-9.13zm53.16 11.74c-3.94,-0.23 -7.9,-0.47 -11.78,-0.78 -0.84,1.9 -1.64,3.79 -2.46,5.68 -3.61,-0.28 -7.2,-0.59 -10.75,-0.95 3.08,-5.66 6.15,-11.31 9.03,-17.05 2.85,-5.7 5.54,-11.45 8.17,-17.18 3.3,0.29 6.65,0.52 9.98,0.75 1.48,6.01 3,12.05 4.72,18.01 1.74,5.98 3.65,11.93 5.7,17.89 -3.79,-0.12 -7.55,-0.25 -11.28,-0.44 -0.47,-1.98 -0.92,-3.95 -1.33,-5.93zm-1.56 -7.79c-0.42,-2.15 -0.84,-4.3 -1.22,-6.46 -0.38,-2.15 -0.74,-4.3 -1.07,-6.46 -0.8,2.09 -1.58,4.17 -2.38,6.24 -0.81,2.09 -1.66,4.14 -2.49,6.21 2.37,0.18 4.76,0.32 7.15,0.47zm17.96 -21c2.84,0.09 5.72,0.15 8.62,0.23 2.03,3.28 4.09,6.54 6.25,9.76 2.16,3.24 4.43,6.46 6.77,9.68 -0.3,-3.22 -0.57,-6.45 -0.84,-9.68 -0.27,-3.22 -0.59,-6.45 -0.86,-9.68 2.91,-0.04 5.84,-0.09 8.75,-0.14 0.76,5.83 1.52,11.66 2.28,17.48 0.76,5.82 1.52,11.65 2.28,17.48 -3.42,0.1 -6.85,0.21 -10.25,0.25 -2.45,-3.19 -4.85,-6.38 -7.16,-9.58 -2.29,-3.19 -4.45,-6.45 -6.6,-9.7 0.1,3.22 0.22,6.45 0.34,9.66 0.11,3.22 0.19,6.44 0.31,9.66 -3.4,-0.04 -6.79,-0.09 -10.17,-0.13 0.04,-5.88 0.1,-11.76 0.15,-17.65 0.06,-5.88 0.08,-11.76 0.14,-17.64zm32.76 0.05c9.37,-0.4 18.68,-0.98 27.87,-1.76 0.8,2.85 1.64,5.67 2.44,8.52 -3.21,0.28 -6.44,0.56 -9.66,0.83 1.07,4.33 2.13,8.67 3.17,13.02 1.04,4.34 2.11,8.68 3.15,13.03 -3.58,0.27 -7.12,0.53 -10.7,0.75 -0.86,-4.36 -1.71,-8.74 -2.57,-13.09 -0.86,-4.36 -1.7,-8.74 -2.57,-13.1 -3.27,0.16 -6.56,0.31 -9.82,0.44 -0.41,-2.88 -0.86,-5.75 -1.31,-8.64zm42.66 32.18c-1.79,-5.73 -3.56,-11.45 -5.33,-17.17 -1.77,-5.72 -3.55,-11.45 -5.31,-17.17 4.94,-0.53 9.88,-1.11 14.74,-1.74 2.71,-0.35 4.86,-0.37 6.5,-0.03 1.64,0.34 3.21,1.18 4.75,2.52 1.52,1.35 2.75,3.09 3.69,5.21 0.82,1.86 1.22,3.5 1.13,4.96 -0.1,1.47 -0.64,2.73 -1.52,3.77 -0.57,0.67 -1.48,1.29 -2.75,1.86 1.29,0.24 2.32,0.53 3,0.85 0.45,0.22 1.2,0.73 2.24,1.51 1.07,0.79 1.8,1.4 2.24,1.85 1.45,1.48 2.96,2.96 4.43,4.42 1.5,1.47 3.04,2.93 4.55,4.37 -3.71,0.67 -7.47,1.36 -11.24,1.96 -1.6,-1.58 -3.17,-3.15 -4.74,-4.74 -1.57,-1.58 -3.11,-3.16 -4.63,-4.77 -1.17,-1.24 -2.04,-2.05 -2.72,-2.37 -0.89,-0.42 -1.79,-0.57 -2.67,-0.46 -0.29,0.03 -0.58,0.07 -0.83,0.1 0.81,2.31 1.63,4.6 2.45,6.91 0.82,2.3 1.62,4.59 2.46,6.89 -3.47,0.43 -6.97,0.87 -10.43,1.28zm3.24 -21.49c1.32,-0.16 2.66,-0.35 3.96,-0.53 0.43,-0.06 1.18,-0.34 2.3,-0.81 0.54,-0.22 0.92,-0.64 1.07,-1.27 0.16,-0.63 0.1,-1.31 -0.19,-2.04 -0.45,-1.1 -1.08,-1.89 -1.91,-2.4 -0.83,-0.5 -2.05,-0.65 -3.69,-0.43 -1.33,0.18 -2.67,0.35 -3.99,0.52 0.82,2.32 1.64,4.63 2.46,6.95zm16.98 -17c2.8,-0.48 5.6,-0.96 8.4,-1.44 2.83,5.4 5.66,10.8 8.49,16.2 2.82,5.39 5.64,10.8 8.46,16.19 -3.2,0.69 -6.44,1.39 -9.64,2.08 -2.61,-5.51 -5.23,-11.02 -7.84,-16.51 -2.61,-5.51 -5.23,-11.01 -7.86,-16.52zm-170.51 45.06c-3.34,-0.69 -14.49,-3.25 -14.49,-3.25 0,0 1.28,2.49 2.4,4.36 1.12,1.89 1.03,3.17 0.26,6.78 -0.78,3.59 -3.86,5.91 -3.86,5.91 0,0 9.35,0.6 14.92,-1.89 5.58,-2.49 6.09,-11.57 6.09,-11.57 0,0 -1.97,0.34 -5.32,-0.34zm-25.12 -46.45c-4.98,-3.77 -24.19,-34.97 -30.88,-41.65 -6.69,-6.69 -9.74,-9 -13.64,-11.66 -3.9,-2.66 -8.59,-4.97 -8.59,-4.97 0,0 3.73,7.42 4.76,13.25 1.03,5.82 0.22,11.52 -0.51,14.01 -0.73,2.49 -1.68,6.21 -1.68,6.21l-33.41 -0.38c0,0 19.47,13.28 42.8,47.56 23.32,34.28 34.3,34.96 34.3,34.96 0,0 8.66,3.6 12.69,1.29 4.03,-2.31 4.81,-5.48 3.95,-8.65 -0.86,-3.16 -2.24,-5.48 -5.23,-7.71 -3.01,-2.24 -12.1,-7.12 -12.1,-7.12l17.46 -32.39c0,0 -4.97,1.03 -9.94,-2.75zm91.83 -50.37c-0.96,-1.07 -2.31,-2.27 -3.44,-3.24 -9.5,-0.25 -19.01,-0.54 -28.52,-0.75l5.65 0.95c3.83,0.64 7.66,1.27 11.48,1.89 4.54,0.73 9.88,1.02 14.83,1.16zm22.94 -0.69c-1.02,-0.08 -2.04,-0.17 -3.06,-0.27 2.09,3.35 4.23,7.71 4.93,11.27l0.56 2.87 -2.92 0c-9.29,0.01 -19.26,-0.64 -28.42,-2.05 -7.29,-1.12 -16.93,-4.82 -22.39,-10.07l-5.29 -5.08c-1.96,-0.04 -3.91,-0.08 -5.86,-0.12 -3.83,-0.06 -8.03,-0.79 -11.22,-3.04 -1.19,-0.85 -2.57,-2.19 -3.13,-3.56l-1.19 -2.84 3.04 -0.47c7.98,-1.2 20.27,-1.8 28,0.6 1.87,0.58 3.79,1.06 5.74,1.46 -1.66,-0.82 -3.3,-1.68 -4.91,-2.58l-1.17 -0.24c-1.54,-0.31 -3.12,-0.52 -4.69,-0.7 -10.79,-1.2 -21.71,-0.86 -32.53,-1.48 -5.02,-0.29 -11.55,-2.41 -15.04,-6.28l-3.22 -3.59 4.81 -0.4c3.62,-0.31 7.36,-0.42 10.98,-0.49 7.53,-0.13 15.11,0.07 22.62,0.63 -0.67,-0.56 -1.34,-1.13 -2,-1.71 -0.97,-0.06 -1.94,-0.11 -2.91,-0.16 -6.36,-0.3 -12.73,-0.27 -19.09,0.11 -7.88,0.47 -16.14,0.88 -24.07,0.55 25.19,40.62 69.37,67.56 119.65,67.56 52.24,0 97.88,-29.07 122.5,-72.35 -3.34,0.34 -6.7,0.52 -10.05,0.65 -10.62,0.4 -21.25,0.91 -31.86,1.59l-2.85 0.19c-0.53,0.48 -1.06,0.96 -1.6,1.43l0.84 -0.07c8.44,-0.72 16.95,-0.98 25.42,-0.82 3.5,0.07 7.13,0.18 10.63,0.48l4.34 0.38 -2.92 3.24c-3.43,3.82 -9.91,5.91 -14.88,6.2 -10.03,0.58 -20.08,0.37 -30.12,1.25 -2.37,0.21 -4.8,0.47 -7.14,0.94 -0.8,0.17 -1.64,0.33 -2.51,0.51 -1.75,1.08 -3.52,2.1 -5.33,3.09l0.84 -0.15c2.29,-0.43 4.56,-0.97 6.78,-1.66 7.7,-2.39 19.96,-1.79 27.9,-0.58l2.76 0.41 -1.07 2.58c-0.56,1.34 -1.91,2.66 -3.06,3.47 -3.15,2.24 -7.31,2.96 -11.09,3.01 -9.64,0.16 -19.3,0.45 -28.94,0.71 -2.41,0.06 -4.82,0.15 -7.23,0.2 -1.27,1.1 -2.83,2.49 -3.83,3.7 5.08,-0.14 10.64,-0.42 15.34,-1.18 3.83,-0.62 7.66,-1.25 11.48,-1.89l6.96 -1.18 -5.09 4.89c-5.42,5.21 -15.03,8.9 -22.27,10.01 -9.15,1.41 -19.1,2.05 -28.38,2.04l-2.66 0 0.53 -2.6c0.52,-2.63 1.95,-5.86 3.16,-8.21 0.19,-0.35 0.38,-0.71 0.57,-1.05 -1.22,0.18 -2.45,0.34 -3.68,0.48 -0.07,0.28 -0.14,0.55 -0.21,0.82 -0.94,3.83 -1.41,8.1 -0.7,11.99 0.65,3.56 1.67,7.18 3.17,10.48 0.46,1 1.57,3.26 2.36,4.04 0.25,0.26 0.46,0.55 0.62,0.87 1.68,3.41 -2.64,6.84 -5.76,7.23 -5.39,0.68 -10.78,-2.72 -13.33,-7.37 -1.56,-2.85 -1.89,-8.27 -2.32,-11.53 -0.68,-5.19 -1.7,-10.19 -3.97,-14.95 -0.19,-0.4 -0.39,-0.8 -0.6,-1.19zm-77.59 -39.31c-20.55,-23.16 -33.19,-54.61 -33.19,-89.27 0,-45.04 21.32,-84.67 53.64,-107.72 -45.99,24.16 -77.48,73.38 -77.48,130.16 0,24.05 5.65,46.74 15.66,66.75l41.38 0.08zm211.59 -1.23c9.65,-19.72 15.09,-42 15.09,-65.6 0,-53.39 -27.83,-100.09 -69.39,-125.56 28.91,23.51 47.61,60.95 47.61,103.12 0,34.41 -12.46,65.66 -32.75,88.77 12.74,-0.34 25.5,-0.58 38.25,-0.72l1.19 -0.01z"/>
  </g>
  <rect class="fil2" width="938.61" height="938.61"/>
 </g>
</svg>
